<svg xmlns="http://www.w3.org/2000/svg" viewBox="0 0 128 128">
  <linearGradient xmlns="http://www.w3.org/2000/svg" id="a" gradientUnits="userSpaceOnUse" x1="70.252" y1="1237.476" x2="170.659" y2="1151.089" gradientTransform="matrix(.563 0 0 -.568 -29.215 707.817)"><stop offset="0" stop-color="#5A9FD4"/><stop offset="1" stop-color="#306998"/></linearGradient>
  <linearGradient xmlns="http://www.w3.org/2000/svg" id="b" gradientUnits="userSpaceOnUse" x1="209.474" y1="1098.811" x2="173.62" y2="1149.537" gradientTransform="matrix(.563 0 0 -.568 -29.215 707.817)"><stop offset="0" stop-color="#FFD43B"/><stop offset="1" stop-color="#FFE873"/></linearGradient>
  <path fill="url(#a)" d="m49.33,62l29.159,0c8.117,0 14.511,-6.868 14.511,-15.019l0,-27.798c0,-7.912 -6.632,-13.856 -14.555,-15.176c-5.014,-0.835 -10.195,-1.215 -15.187,-1.191c-4.99,0.023 -9.612,0.448 -13.805,1.191c-12.355,2.181 -14.453,6.751 -14.453,15.176l0,10.817l29,0l0,4l-40.224,0c-8.484,0 -15.914,5.108 -18.237,14.811c-2.681,11.12 -2.8,17.919 0,29.53c2.075,8.642 7.03,14.659 15.515,14.659l9.946,0l0,-13.048c0,-9.637 8.428,-17.952 18.33,-17.952zm-1.838,-39.11c-3.026,0 -5.478,-2.479 -5.478,-5.545c0,-3.079 2.451,-5.581 5.478,-5.581c3.015,0 5.479,2.502 5.479,5.581c-0.001,3.066 -2.465,5.545 -5.479,5.545z"/>
  <path fill="url(#b)" d="M122.281 48.811c-2.098-8.448-6.103-14.811-14.599-14.811h-10.682v12.981c0 10.05-8.794 18.019-18.511 18.019h-29.159c-7.988 0-14.33 7.326-14.33 15.326v27.8c0 7.91 6.745 12.564 14.462 14.834 9.242 2.717 17.994 3.208 29.051 0 7.349-2.129 14.487-6.411 14.487-14.834v-11.126h-29v-4h43.682c8.484 0 11.647-5.776 14.599-14.66 3.047-9.145 2.916-17.799 0-29.529zm-41.955 55.606c3.027 0 5.479 2.479 5.479 5.547 0 3.076-2.451 5.579-5.479 5.579-3.015 0-5.478-2.502-5.478-5.579 0-3.068 2.463-5.547 5.478-5.547z"></path>
</svg>
